<svg width="18" height="18" viewBox="0 0 18 18" fill="none" xmlns="http://www.w3.org/2000/svg">
<path id="Vector" d="M12.4615 7.70291C12.4615 6.44726 11.9874 5.37316 11.0391 4.48063C10.0907 3.58809 8.94952 3.14183 7.61538 3.14183C6.28125 3.14183 5.14002 3.58809 4.19171 4.48063C3.24339 5.37316 2.76923 6.44726 2.76923 7.70291C2.76923 8.95857 3.24339 10.0327 4.19171 10.9252C5.14002 11.8177 6.28125 12.264 7.61538 12.264C8.94952 12.264 10.0907 11.8177 11.0391 10.9252C11.9874 10.0327 12.4615 8.95857 12.4615 7.70291ZM18 16.1735C18 16.5264 17.863 16.8319 17.5889 17.0898C17.3149 17.3477 16.9904 17.4767 16.6154 17.4767C16.226 17.4767 15.9014 17.3477 15.6418 17.0898L11.9315 13.6079C10.6406 14.4495 9.20192 14.8703 7.61538 14.8703C6.58413 14.8703 5.59796 14.682 4.65685 14.3053C3.71574 13.9286 2.90445 13.4195 2.22296 12.7781C1.54147 12.1367 1.0006 11.3732 0.600361 10.4874C0.20012 9.60167 0 8.6735 0 7.70291C0 6.73232 0.20012 5.80416 0.600361 4.91841C1.0006 4.03266 1.54147 3.26909 2.22296 2.62769C2.90445 1.98628 3.71574 1.47723 4.65685 1.10054C5.59796 0.72384 6.58413 0.535492 7.61538 0.535492C8.64664 0.535492 9.63281 0.72384 10.5739 1.10054C11.515 1.47723 12.3263 1.98628 13.0078 2.62769C13.6893 3.26909 14.2302 4.03266 14.6304 4.91841C15.0306 5.80416 15.2308 6.73232 15.2308 7.70291C15.2308 9.19613 14.7837 10.5502 13.8894 11.7651L17.5998 15.2572C17.8666 15.5083 18 15.8138 18 16.1735Z" fill="#02A28F"/>
</svg>
